:SAMPLES-PER-SECOND 30
:FULLY-SPECIFIED
:DEGREES
721
root  -30.8923 39.7908 8.67972 -3.83983 63.7416 0.386963
RightUpLeg  1.70735 -11.4864 -2.66687
RightLeg  15.8259 -10.2101 0.458734
RightFoot  -11.112 -0.0711388 -2.09501
RightToes  -2.21189e-009 0 -3.6325e-017
Spine  7.7623 -1.56472 12.1119
Spine1  10.3187 0.439917 -3.21257
HEad  -10.9488 -9.95507 -5.07173
LeftShoulder1  0.0517811 3.35281 -28.1228
LeftArm  -7.65034 18.3278 -42.6846
LeftForeArm  21.1191 -32.6905 -6.01471
LeftHand  -0.0826514 2.32285 2.72437
RightShoulder  -0.370123 -4.69143 24.1646
RightArm  19.2307 3.33248 50.8559
RightForeArm  -6.34779 23.5228 5.34451
RightHand  -0.861182 6.90373 -8.45171
LeftUpLeg  -16.0033 6.6032 1.71619
LeftLeg  34.3864 -6.05159 -4.11396
LeftFoot  -2.17173 0.377723 -4.54081
LeftToes  -4.03379e-008 1.61488e-010 -5.81581e-011
722
root  -30.1524 39.8547 9.07541 -2.806 64.1829 1.18585
RightUpLeg  3.49621 -11.2895 -3.111
RightLeg  14.4418 -10.7374 0.473393
RightFoot  -11.5912 -0.0820485 -1.6435
RightToes  -2.21189e-009 0 -3.6325e-017
Spine  7.43986 -1.22365 11.4593
Spine1  10.1898 0.642154 -3.68804
HEad  -10.3403 -8.45369 -5.24287
LeftShoulder1  0.0257487 3.42838 -28.0179
LeftArm  -7.9728 17.8614 -43.0794
LeftForeArm  22.6751 -33.938 -6.2429
LeftHand  -0.0781202 1.83924 2.27278
RightShoulder  -0.345458 -4.62143 23.869
RightArm  18.6642 3.54351 50.5595
RightForeArm  -5.94772 24.2928 5.49364
RightHand  -0.866945 6.42627 -8.83005
LeftUpLeg  -15.5615 8.24519 1.01269
LeftLeg  23.4577 -5.97264 -2.45821
LeftFoot  -0.529706 0.436386 -4.58696
LeftToes  -4.03379e-008 1.61488e-010 -5.81581e-011
723
root  -29.3625 39.91 9.46318 -2.33063 64.8337 1.45245
RightUpLeg  5.80318 -11.1287 -3.46062
RightLeg  12.4037 -11.3648 0.842111
RightFoot  -11.8828 -0.0854001 -1.03854
RightToes  -2.21189e-009 0 -3.6325e-017
Spine  7.41552 -1.08776 10.0573
Spine1  9.59787 0.368721 -3.1349
HEad  -9.05141 -7.67117 -6.10321
LeftShoulder1  -0.0210862 3.56536 -28.1993
LeftArm  -7.87009 18.0558 -43.1781
LeftForeArm  23.6748 -34.5952 -6.3548
LeftHand  -0.0610676 1.6648 1.64947
RightShoulder  -0.333009 -4.58078 23.8489
RightArm  19.6183 3.86018 49.8705
RightForeArm  -6.99615 24.0117 5.48834
RightHand  -0.908519 6.19375 -9.40498
LeftUpLeg  -14.3276 8.13725 0.793064
LeftLeg  11.842 -3.78894 -1.0597
LeftFoot  0.937088 0.445904 -4.19577
LeftToes  -4.03379e-008 1.61488e-010 -5.81581e-011
724
root  -28.5292 39.9012 9.83056 -2.37325 65.1959 1.23395
RightUpLeg  8.11202 -10.9255 -3.61642
RightLeg  10.5833 -11.7514 1.1828
RightFoot  -12.3482 -0.0876199 -0.457983
RightToes  -2.21189e-009 0 -3.6325e-017
Spine  6.63609 -0.942505 9.11123
Spine1  10.3982 0.298382 -2.97859
HEad  -9.09505 -6.77238 -5.87357
LeftShoulder1  0.00458179 3.49047 -28.3113
LeftArm  -7.48621 17.9907 -43.3717
LeftForeArm  23.6562 -34.5173 -6.33573
LeftHand  -0.06315 1.71444 1.73813
RightShoulder  -0.298961 -4.4745 23.6481
RightArm  19.7645 4.31439 49.7931
RightForeArm  -7.44037 22.9096 5.30862
RightHand  -0.935233 6.19363 -9.67082
LeftUpLeg  -12.9196 4.77033 1.75493
LeftLeg  1.76698 1.97251 -1.09888
LeftFoot  2.15011 0.473186 -4.10995
LeftToes  -4.03379e-008 1.61488e-010 -5.81581e-011
725
root  -27.603 39.7704 10.2029 -3.05983 65.6523 0.674988
RightUpLeg  10.5014 -10.8613 -3.74608
RightLeg  9.77362 -12.0298 1.26826
RightFoot  -13.4025 -0.0857263 0.239779
RightToes  -2.21189e-009 0 -3.6325e-017
Spine  6.10728 -0.970917 8.22724
Spine1  11.0703 0.131974 -2.81774
HEad  -9.19467 -6.22755 -4.80376
LeftShoulder1  0.0214612 3.44108 -27.969
LeftArm  -6.92263 18.0812 -43.6295
LeftForeArm  23.7608 -33.774 -6.13794
LeftHand  -0.0575764 1.60896 1.56169
RightShoulder  -0.293422 -4.45735 23.5998
RightArm  19.1577 4.36727 49.8083
RightForeArm  -6.89085 21.5676 5.25856
RightHand  -0.851775 5.71519 -9.20312
LeftUpLeg  -12.2072 4.26415 1.80252
LeftLeg  -3.85105 3.80747 -1.15341
LeftFoot  2.52406 0.482631 -4.07822
LeftToes  -4.03379e-008 1.61488e-010 -5.81581e-011
726
root  -26.6159 39.546 10.5273 -3.88115 65.84 0.0710449
RightUpLeg  12.4631 -11.1385 -4.18472
RightLeg  10.229 -11.6413 1.2322
RightFoot  -15.0017 -0.0637959 1.19047
RightToes  -2.21189e-009 0 -3.6325e-017
Spine  5.81506 -0.939005 7.37084
Spine1  11.4204 0.0545646 -2.56104
HEad  -8.90347 -5.90698 -4.09219
LeftShoulder1  0.0553827 3.34221 -28.109
LeftArm  -5.95569 18.0012 -43.315
LeftForeArm  22.9786 -32.0942 -5.76179
LeftHand  -0.0567398 1.81708 1.5532
RightShoulder  -0.308191 -4.49443 23.9831
RightArm  18.3855 4.38555 49.6422
RightForeArm  -6.28803 19.1337 5.45346
RightHand  -0.832133 6.15558 -8.67185
LeftUpLeg  -12.4631 4.29505 1.71574
LeftLeg  -3.96151 4.42929 -1.16308
LeftFoot  2.7062 0.378096 -3.25107
LeftToes  -4.03379e-008 1.61488e-010 -5.81581e-011
727
root  -25.5601 39.346 10.8277 -3.7999 66.1179 0.573547
RightUpLeg  14.6936 -11.7904 -5.31865
RightLeg  10.6164 -10.777 0.986058
RightFoot  -16.3298 -0.00292958 2.45453
RightToes  -2.21189e-009 0 -3.6325e-017
Spine  5.74724 -1.02555 6.48442
Spine1  11.5715 0.130343 -3.1453
HEad  -8.41309 -5.7232 -3.06524
LeftShoulder1  0.0255919 3.4291 -28.1486
LeftArm  -5.01861 17.9834 -43.0878
LeftForeArm  22.4506 -29.6936 -5.21493
LeftHand  -0.0563217 1.91576 1.56092
RightShoulder  -0.29551 -4.44995 24.0555
RightArm  16.2911 3.21329 49.7482
RightForeArm  -5.14015 17.0278 5.76166
RightHand  -0.80312 6.02177 -8.47667
LeftUpLeg  -13.2944 4.00343 0.900772
LeftLeg  0.0299169 4.42721 -0.8524
LeftFoot  6.49469 -0.0297195 -0.127066
LeftToes  -4.03379e-008 1.61488e-010 -5.81581e-011
728
root  -24.3697 39.1274 11.1102 -3.66556 66.0261 1.44836
RightUpLeg  17.2898 -13.2433 -7.42889
RightLeg  11.4298 -8.26311 0.87956
RightFoot  -17.5105 0.124206 4.5118
RightToes  -2.21189e-009 0 -3.6325e-017
Spine  5.41968 -0.848513 5.59199
Spine1  11.9913 0.442514 -3.70132
HEad  -8.07186 -5.66407 -2.23225
LeftShoulder1  -0.0440154 3.63166 -28.3578
LeftArm  -3.77445 17.8642 -42.6949
LeftForeArm  21.3876 -26.8216 -4.60125
LeftHand  -0.0337675 2.42544 0.822009
RightShoulder  -0.371707 -4.67816 24.6461
RightArm  14.4253 2.12481 49.1973
RightForeArm  -3.85929 14.4168 6.22819
RightHand  -0.808776 5.73521 -8.73812
LeftUpLeg  -13.8174 4.2034 0.0225659
LeftLeg  5.07324 3.65915 -0.495013
LeftFoot  10.3276 -0.655412 3.14884
LeftToes  -4.03379e-008 1.61488e-010 -5.81581e-011
729
root  -23.1687 38.9467 11.3642 -2.66945 65.6455 3.56598
RightUpLeg  19.5146 -14.4789 -10.0598
RightLeg  13.2945 -5.38251 -0.073208
RightFoot  -18.2227 0.335966 7.57796
RightToes  -2.21189e-009 0 -3.6325e-017
Spine  6.01352 -0.69891 4.18494
Spine1  11.6725 0.704063 -4.2365
HEad  -7.58913 -5.36945 -1.79894
LeftShoulder1  -0.156003 3.95282 -28.5329
LeftArm  -3.55481 18.0715 -42.3625
LeftForeArm  20.3109 -23.4751 -4.06831
LeftHand  -0.0103404 2.87795 -0.274124
RightShoulder  -0.401405 -4.74282 25.4523
RightArm  12.6668 0.827446 48.6723
RightForeArm  -1.80024 11.9667 6.5268
RightHand  -0.742092 5.12227 -8.46769
LeftUpLeg  -14.2082 5.53498 -1.47411
LeftLeg  11.3085 2.80063 0.0672391
LeftFoot  9.00437 -1.09537 5.78078
LeftToes  -4.03379e-008 1.61488e-010 -5.81581e-011
730
root  -21.9385 38.7863 11.5799 -0.592972 65.8033 6.84796
RightUpLeg  20.7575 -15.5466 -13.5095
RightLeg  17.2396 -2.46889 -0.784489
RightFoot  -18.3381 0.616026 12.1555
RightToes  -2.21189e-009 0 -3.6325e-017
Spine  6.31324 -0.614508 2.42753
Spine1  11.6681 0.778061 -4.60579
HEad  -7.04936 -5.545 -2.05464
LeftShoulder1  -0.207977 4.09277 -29.1847
LeftArm  -4.11835 17.7319 -41.5554
LeftForeArm  19.7344 -19.2717 -4.28103
LeftHand  -0.0091594 3.86669 -0.885716
RightShoulder  -0.39864 -4.72697 25.618
RightArm  10.551 -1.17045 48.6516
RightForeArm  0.902192 9.78688 6.34647
RightHand  -0.613235 3.72426 -8.07034
LeftUpLeg  -13.8135 6.233 -3.63635
LeftLeg  16.4233 2.23677 0.963365
LeftFoot  4.97152 -0.875305 5.90526
LeftToes  -4.03379e-008 1.61488e-010 -5.81581e-011
731
root  -20.826 38.7616 11.7197 1.10007 65.0281 8.75684
RightUpLeg  18.9167 -12.8332 -14.6167
RightLeg  23.1287 -2.62421 -1.50549
RightFoot  -16.2895 0.644045 17.9199
RightToes  -2.21189e-009 0 -3.6325e-017
Spine  6.35481 -0.137034 1.94041
Spine1  11.3851 1.40401 -6.33905
HEad  -6.5368 -5.81276 -2.62696
LeftShoulder1  -0.16963 3.98379 -29.1973
LeftArm  -7.32854 17.8812 -41.4444
LeftForeArm  21.2563 -14.9864 -5.02511
LeftHand  -0.0238214 4.83852 -0.712754
RightShoulder  -0.473436 -4.95151 25.8527
RightArm  9.17264 -3.16993 48.8075
RightForeArm  1.06614 7.63922 6.09192
RightHand  -0.646415 3.47442 -8.70535
LeftUpLeg  -13.0247 7.30525 -4.85601
LeftLeg  18.6599 2.22356 1.07723
LeftFoot  2.104 -0.797968 6.64113
LeftToes  -4.03379e-008 1.61488e-010 -5.81581e-011
732
root  -19.7803 38.8007 11.8184 2.50888 63.3167 10.3839
RightUpLeg  14.5925 -8.67321 -15.3232
RightLeg  31.9341 -3.06485 -2.28066
RightFoot  -11.3255 -0.0358479 20.6553
RightToes  -2.21189e-009 0 -3.6325e-017
Spine  6.88314 0.480397 0.911726
Spine1  10.7788 1.8613 -7.25271
HEad  -6.40864 -5.03959 -3.35219
LeftShoulder1  -0.223225 4.1325 -29.3388
LeftArm  -9.06461 18.9732 -41.3679
LeftForeArm  21.4751 -12.6385 -5.20361
LeftHand  -0.0235445 4.86486 -1.18177
RightShoulder  -0.459167 -4.91373 25.6956
RightArm  8.94485 -4.39352 48.8956
RightForeArm  1.19106 6.05357 5.98687
RightHand  -0.663832 3.97548 -8.48974
LeftUpLeg  -11.5121 8.53214 -5.80256
LeftLeg  19.2843 2.94615 1.02566
LeftFoot  -0.0407266 -0.670693 6.77276
LeftToes  -4.03379e-008 1.61488e-010 -5.81581e-011
733
root  -18.7206 38.953 11.9273 3.70973 62.1028 11.5609
RightUpLeg  8.74809 -5.47103 -15.9088
RightLeg  41.7507 -2.25974 -2.44768
RightFoot  -1.67195 -1.08583 13.562
RightToes  -2.21189e-009 0 -3.6325e-017
Spine  7.43769 0.464118 -0.202581
Spine1  9.56571 1.69934 -7.11132
HEad  -6.93603 -3.91765 -3.75312
LeftShoulder1  -0.272677 4.2672 -29.5593
LeftArm  -9.60989 20.2315 -41.0602
LeftForeArm  22.4782 -11.4392 -5.21694
LeftHand  -0.020228 5.03053 -2.67788
RightShoulder  -0.451007 -4.88751 25.7056
RightArm  9.24725 -5.13609 48.7299
RightForeArm  1.45982 6.36982 6.08138
RightHand  -0.619078 3.04612 -8.73691
LeftUpLeg  -9.41603 8.03883 -6.68012
LeftLeg  18.3164 4.74695 1.19074
LeftFoot  -1.44139 -0.583122 6.81998
LeftToes  -4.03379e-008 1.61488e-010 -5.81581e-011
734
root  -17.7942 38.9991 12.0951 4.0802 61.3558 12.1612
RightUpLeg  3.32572 -2.33178 -15.6656
RightLeg  49.8944 -0.802421 -1.32542
RightFoot  6.10933 -1.07233 6.93493
RightToes  -2.21189e-009 0 -3.6325e-017
Spine  8.15189 0.447533 -1.84368
Spine1  9.3204 1.26303 -6.49602
HEad  -8.40988 -3.31118 -4.08468
LeftShoulder1  -0.199191 4.06469 -29.3685
LeftArm  -9.12601 21.027 -40.9267
LeftForeArm  23.5485 -11.0425 -5.47629
LeftHand  -0.0131367 4.62004 -2.5112
RightShoulder  -0.498092 -5.02359 25.9492
RightArm  9.05115 -5.57522 48.5181
RightForeArm  1.22308 7.86639 5.97498
RightHand  -0.66069 3.63296 -8.74073
LeftUpLeg  -7.64994 7.56953 -7.13856
LeftLeg  18.3212 6.02492 1.21324
LeftFoot  -3.15198 -0.455592 6.62344
LeftToes  -4.03379e-008 1.61488e-010 -5.81581e-011
735
root  -16.9307 39.0322 12.2748 3.75774 61.0891 12.0426
RightUpLeg  -0.697695 0.0173483 -15.0383
RightLeg  54.9815 1.79731 2.35283
RightFoot  3.73777 -1.14616 8.81881
RightToes  -2.21189e-009 0 -3.6325e-017
Spine  8.45066 0.160332 -3.4714
Spine1  9.90357 0.403517 -5.46378
HEad  -9.68589 -2.08175 -4.19452
LeftShoulder1  -0.203055 4.06986 -29.7148
LeftArm  -8.20261 20.7084 -40.3444
LeftForeArm  24.3321 -10.68 -5.89634
LeftHand  -0.0154369 4.70268 -1.91834
RightShoulder  -0.479797 -4.97344 25.8028
RightArm  9.00863 -5.51411 48.8531
RightForeArm  0.717979 9.68278 5.85356
RightHand  -0.660195 4.04003 -8.35924
LeftUpLeg  -5.95846 7.07044 -7.18496
LeftLeg  18.4211 6.95724 1.12346
LeftFoot  -4.77418 -0.345132 6.51168
LeftToes  -4.03379e-008 1.61488e-010 -5.81581e-011
